# xmcd
#
# Track frame offsets:
#	150
#	9480
#	20012
#	32240
#	45002
#	59725
#	71625
#	82657
#	93625
#	107337
#	121945
#	131412
#	144865
#	156567
#	170280
#
# Disc length: 2477 seconds
#
# Revision: 10
# Processed by: cddbd v1.5.2PL0 Copyright (c) Steve Scherf et al.
# Submitted via: audiograbber 1.83.01
#
DISCID=ba09ab0f
DTITLE=Various Artist - Time-Life - Classic Country - Golden '60s  [CD1)
DYEAR=1999
DGENRE=Oldies
TTITLE0=Earl Scruggs - Ballad Of Jed Clampett
TTITLE1=Cowboy Copas - Alabama
TTITLE2=Bobby Bare - 500 Miles Away From Home
TTITLE3=Johnny Tillotson - It Keeps Right On A-Hurtin'
TTITLE4=Marty Robbins - Don't Worry
TTITLE5=Wanda Jackson - Right Or Wrong
TTITLE6=Buck Owens - Together Again
TTITLE7=Jim Reeves - I Guess I'm Crazy
TTITLE8=Jimmy Dean - Big Bad John
TTITLE9=Johnny Horton - Sink The Bismarck
TTITLE10=Bob Luman - Let's Think About Living
TTITLE11=Tammy Wynette - D-I-V-O-R-C-E
TTITLE12=George Jones - The Window Up Above
TTITLE13=Patsy Cline - She's Got You
TTITLE14=Bill Anderson - Mama Sang A Song
EXTD=
EXTT0=
EXTT1=
EXTT2=
EXTT3=
EXTT4=
EXTT5=
EXTT6=
EXTT7=
EXTT8=
EXTT9=
EXTT10=
EXTT11=
EXTT12=
EXTT13=
EXTT14=
PLAYORDER=
